<svg xmlns="http://www.w3.org/2000/svg" viewBox="0 0 1081.38 33.33"><defs><style>.cls-1{fill:none;stroke:#f7e07c;stroke-miterlimit:10;stroke-width:1.33px;}</style></defs><title>Asset 13</title><g id="Layer_2" data-name="Layer 2"><g id="Layer_1-2" data-name="Layer 1"><line class="cls-1" x1="10.69" y1="32.66" x2="0.74" y2="16.66"/><line class="cls-1" x1="30.65" y1="32.66" x2="10.74" y2="32.66"/><polygon class="cls-1" points="30.64 0.66 10.74 0.66 0.78 16.66 10.74 32.66 30.64 32.66 40.6 16.66 30.64 0.66"/><polyline class="cls-1" points="70.69 32.66 60.74 16.66 40.83 16.66 30.87 32.66"/><line class="cls-1" x1="90.65" y1="32.66" x2="70.74" y2="32.66"/><polygon class="cls-1" points="90.64 0.66 70.74 0.66 60.78 16.66 70.74 32.66 90.64 32.66 100.6 16.66 90.64 0.66"/><polyline class="cls-1" points="130.69 32.66 120.74 16.66 100.83 16.66 90.87 32.66"/><line class="cls-1" x1="150.65" y1="32.66" x2="130.74" y2="32.66"/><polygon class="cls-1" points="150.65 0.66 130.74 0.66 120.78 16.66 130.74 32.66 150.65 32.66 160.6 16.66 150.65 0.66"/><polyline class="cls-1" points="190.69 32.66 180.74 16.66 160.83 16.66 150.87 32.66"/><line class="cls-1" x1="210.65" y1="32.66" x2="190.74" y2="32.66"/><polygon class="cls-1" points="210.65 0.66 190.74 0.66 180.78 16.66 190.74 32.66 210.65 32.66 220.6 16.66 210.65 0.66"/><polyline class="cls-1" points="250.69 32.66 240.74 16.66 220.83 16.66 210.87 32.66"/><line class="cls-1" x1="270.65" y1="32.66" x2="250.74" y2="32.66"/><polygon class="cls-1" points="270.64 0.66 250.74 0.66 240.78 16.66 250.74 32.66 270.64 32.66 280.6 16.66 270.64 0.66"/><polyline class="cls-1" points="310.69 32.66 300.74 16.66 280.83 16.66 270.87 32.66"/><line class="cls-1" x1="330.65" y1="32.66" x2="310.74" y2="32.66"/><polygon class="cls-1" points="330.64 0.66 310.74 0.66 300.78 16.66 310.74 32.66 330.64 32.66 340.6 16.66 330.64 0.66"/><polyline class="cls-1" points="30.69 32.66 20.74 16.66 0.83 16.66"/><line class="cls-1" x1="50.65" y1="32.66" x2="30.74" y2="32.66"/><polygon class="cls-1" points="50.65 0.66 30.74 0.66 20.78 16.66 30.74 32.66 50.65 32.66 60.6 16.66 50.65 0.66"/><polyline class="cls-1" points="90.69 32.66 80.74 16.66 60.83 16.66 50.87 32.66"/><line class="cls-1" x1="110.65" y1="32.66" x2="90.74" y2="32.66"/><polygon class="cls-1" points="110.64 0.66 90.74 0.66 80.78 16.66 90.74 32.66 110.64 32.66 120.6 16.66 110.64 0.66"/><polyline class="cls-1" points="150.69 32.66 140.74 16.66 120.83 16.66 110.87 32.66"/><line class="cls-1" x1="170.65" y1="32.66" x2="150.74" y2="32.66"/><polygon class="cls-1" points="170.65 0.66 150.74 0.66 140.78 16.66 150.74 32.66 170.65 32.66 180.6 16.66 170.65 0.66"/><polyline class="cls-1" points="210.69 32.66 200.74 16.66 180.83 16.66 170.87 32.66"/><line class="cls-1" x1="230.65" y1="32.66" x2="210.74" y2="32.66"/><polygon class="cls-1" points="230.65 0.66 210.74 0.66 200.78 16.66 210.74 32.66 230.65 32.66 240.6 16.66 230.65 0.66"/><polyline class="cls-1" points="270.69 32.66 260.74 16.66 240.83 16.66 230.87 32.66"/><line class="cls-1" x1="290.65" y1="32.66" x2="270.74" y2="32.66"/><polygon class="cls-1" points="290.64 0.66 270.74 0.66 260.78 16.66 270.74 32.66 290.64 32.66 300.6 16.66 290.64 0.66"/><polyline class="cls-1" points="330.69 32.66 320.74 16.66 300.83 16.66 290.87 32.66"/><line class="cls-1" x1="350.65" y1="32.66" x2="330.74" y2="32.66"/><polygon class="cls-1" points="350.64 0.66 330.74 0.66 320.78 16.66 330.74 32.66 350.64 32.66 360.6 16.66 350.64 0.66"/><polyline class="cls-1" points="370.69 32.66 360.74 16.66 340.83 16.66 330.87 32.66"/><line class="cls-1" x1="390.65" y1="32.66" x2="370.74" y2="32.66"/><polygon class="cls-1" points="390.64 0.66 370.74 0.66 360.78 16.66 370.74 32.66 390.64 32.66 400.6 16.66 390.64 0.66"/><polyline class="cls-1" points="430.69 32.66 420.74 16.66 400.83 16.66 390.87 32.66"/><line class="cls-1" x1="450.65" y1="32.66" x2="430.74" y2="32.66"/><polygon class="cls-1" points="450.64 0.66 430.74 0.66 420.78 16.66 430.74 32.66 450.64 32.66 460.6 16.66 450.64 0.66"/><polyline class="cls-1" points="490.69 32.66 480.74 16.66 460.83 16.66 450.87 32.66"/><line class="cls-1" x1="510.65" y1="32.66" x2="490.74" y2="32.66"/><polygon class="cls-1" points="510.64 0.66 490.74 0.66 480.78 16.66 490.74 32.66 510.64 32.66 520.6 16.66 510.64 0.66"/><polyline class="cls-1" points="550.69 32.66 540.74 16.66 520.83 16.66 510.87 32.66"/><line class="cls-1" x1="570.65" y1="32.66" x2="550.74" y2="32.66"/><polygon class="cls-1" points="570.64 0.66 550.74 0.66 540.78 16.66 550.74 32.66 570.64 32.66 580.6 16.66 570.64 0.66"/><polyline class="cls-1" points="610.69 32.66 600.74 16.66 580.83 16.66 570.87 32.66"/><line class="cls-1" x1="630.65" y1="32.66" x2="610.74" y2="32.66"/><polygon class="cls-1" points="630.64 0.66 610.74 0.66 600.78 16.66 610.74 32.66 630.64 32.66 640.6 16.66 630.64 0.66"/><polyline class="cls-1" points="670.69 32.66 660.74 16.66 640.83 16.66 630.87 32.66"/><line class="cls-1" x1="690.65" y1="32.66" x2="670.74" y2="32.66"/><polygon class="cls-1" points="690.64 0.66 670.74 0.66 660.78 16.66 670.74 32.66 690.64 32.66 700.6 16.66 690.64 0.66"/><polyline class="cls-1" points="390.69 32.66 380.74 16.66 360.83 16.66 350.87 32.66"/><line class="cls-1" x1="410.65" y1="32.66" x2="390.74" y2="32.66"/><polygon class="cls-1" points="410.64 0.66 390.74 0.66 380.78 16.66 390.74 32.66 410.64 32.66 420.6 16.66 410.64 0.66"/><polyline class="cls-1" points="450.69 32.66 440.74 16.66 420.83 16.66 410.87 32.66"/><line class="cls-1" x1="470.65" y1="32.66" x2="450.74" y2="32.66"/><polygon class="cls-1" points="470.64 0.66 450.74 0.66 440.78 16.66 450.74 32.66 470.64 32.66 480.6 16.66 470.64 0.66"/><polyline class="cls-1" points="510.69 32.66 500.74 16.66 480.83 16.66 470.87 32.66"/><line class="cls-1" x1="530.65" y1="32.66" x2="510.74" y2="32.66"/><polygon class="cls-1" points="530.64 0.66 510.74 0.66 500.78 16.66 510.74 32.66 530.64 32.66 540.6 16.66 530.64 0.66"/><polyline class="cls-1" points="570.69 32.66 560.74 16.66 540.83 16.66 530.87 32.66"/><line class="cls-1" x1="590.65" y1="32.66" x2="570.74" y2="32.66"/><polygon class="cls-1" points="590.64 0.66 570.74 0.66 560.78 16.66 570.74 32.66 590.64 32.66 600.6 16.66 590.64 0.66"/><polyline class="cls-1" points="630.69 32.66 620.74 16.66 600.83 16.66 590.87 32.66"/><line class="cls-1" x1="650.65" y1="32.66" x2="630.74" y2="32.66"/><polygon class="cls-1" points="650.64 0.66 630.74 0.66 620.78 16.66 630.74 32.66 650.64 32.66 660.6 16.66 650.64 0.66"/><polyline class="cls-1" points="690.69 32.66 680.74 16.66 660.83 16.66 650.87 32.66"/><line class="cls-1" x1="710.65" y1="32.66" x2="690.74" y2="32.66"/><polygon class="cls-1" points="710.64 0.66 690.74 0.66 680.78 16.66 690.74 32.66 710.64 32.66 720.6 16.66 710.64 0.66"/><polyline class="cls-1" points="730.69 32.66 720.74 16.66 700.83 16.66 690.87 32.66"/><line class="cls-1" x1="750.65" y1="32.66" x2="730.74" y2="32.66"/><polygon class="cls-1" points="750.64 0.66 730.74 0.66 720.78 16.66 730.74 32.66 750.64 32.66 760.6 16.66 750.64 0.66"/><polyline class="cls-1" points="790.69 32.66 780.74 16.66 760.83 16.66 750.87 32.66"/><line class="cls-1" x1="810.65" y1="32.66" x2="790.74" y2="32.66"/><polygon class="cls-1" points="810.64 0.66 790.74 0.66 780.78 16.66 790.74 32.66 810.64 32.66 820.6 16.66 810.64 0.66"/><polyline class="cls-1" points="850.69 32.66 840.74 16.66 820.83 16.66 810.87 32.66"/><line class="cls-1" x1="870.65" y1="32.66" x2="850.74" y2="32.66"/><polygon class="cls-1" points="870.64 0.66 850.74 0.66 840.78 16.66 850.74 32.66 870.64 32.66 880.6 16.66 870.64 0.66"/><polyline class="cls-1" points="910.69 32.66 900.74 16.66 880.83 16.66 870.87 32.66"/><line class="cls-1" x1="930.65" y1="32.66" x2="910.74" y2="32.66"/><polygon class="cls-1" points="930.64 0.66 910.74 0.66 900.78 16.66 910.74 32.66 930.64 32.66 940.6 16.66 930.64 0.66"/><polyline class="cls-1" points="970.69 32.66 960.74 16.66 940.83 16.66 930.87 32.66"/><line class="cls-1" x1="990.65" y1="32.66" x2="970.74" y2="32.66"/><polygon class="cls-1" points="990.64 0.66 970.74 0.66 960.78 16.66 970.74 32.66 990.64 32.66 1000.6 16.66 990.64 0.66"/><polyline class="cls-1" points="1030.69 32.66 1020.74 16.66 1000.83 16.66 990.87 32.66"/><line class="cls-1" x1="1050.65" y1="32.66" x2="1030.74" y2="32.66"/><polygon class="cls-1" points="1050.64 0.66 1030.74 0.66 1020.78 16.66 1030.74 32.66 1050.64 32.66 1060.6 16.66 1050.64 0.66"/><polyline class="cls-1" points="750.69 32.66 740.74 16.66 720.83 16.66 710.87 32.66"/><line class="cls-1" x1="770.65" y1="32.66" x2="750.74" y2="32.66"/><polygon class="cls-1" points="770.64 0.66 750.74 0.66 740.78 16.66 750.74 32.66 770.64 32.66 780.6 16.66 770.64 0.66"/><polyline class="cls-1" points="810.69 32.66 800.74 16.66 780.83 16.66 770.87 32.66"/><line class="cls-1" x1="830.65" y1="32.66" x2="810.74" y2="32.66"/><polygon class="cls-1" points="830.64 0.66 810.74 0.66 800.78 16.66 810.74 32.66 830.64 32.66 840.6 16.66 830.64 0.66"/><polyline class="cls-1" points="870.69 32.66 860.74 16.66 840.83 16.66 830.87 32.66"/><line class="cls-1" x1="890.65" y1="32.66" x2="870.74" y2="32.66"/><polygon class="cls-1" points="890.64 0.66 870.74 0.66 860.78 16.66 870.74 32.66 890.64 32.66 900.6 16.66 890.64 0.66"/><polyline class="cls-1" points="930.69 32.66 920.74 16.66 900.83 16.66 890.87 32.66"/><line class="cls-1" x1="950.65" y1="32.66" x2="930.74" y2="32.66"/><polygon class="cls-1" points="950.64 0.66 930.74 0.66 920.78 16.66 930.74 32.66 950.64 32.66 960.6 16.66 950.64 0.66"/><polyline class="cls-1" points="990.69 32.66 980.74 16.66 960.83 16.66 950.87 32.66"/><line class="cls-1" x1="1010.65" y1="32.66" x2="990.74" y2="32.66"/><polygon class="cls-1" points="1010.64 0.66 990.74 0.66 980.78 16.66 990.74 32.66 1010.64 32.66 1020.6 16.66 1010.64 0.66"/><polyline class="cls-1" points="1050.69 32.66 1040.74 16.66 1020.83 16.66 1010.87 32.66"/><polyline class="cls-1" points="1080.74 16.66 1060.83 16.66 1050.87 32.66"/><line class="cls-1" x1="1070.65" y1="32.66" x2="1050.74" y2="32.66"/><polygon class="cls-1" points="1070.64 0.66 1050.74 0.66 1040.78 16.66 1050.74 32.66 1070.64 32.66 1080.6 16.66 1070.64 0.66"/></g></g></svg>