<svg xmlns="http://www.w3.org/2000/svg" xmlns:xlink="http://www.w3.org/1999/xlink" viewBox="0 0 93.29 86.03"><defs><style>.cls-1{fill:url(#linear-gradient);}.cls-2{fill:url(#linear-gradient-2);}.cls-3{fill:url(#linear-gradient-3);}.cls-4{fill:url(#linear-gradient-4);}.cls-5{fill:none;}.cls-5,.cls-6{stroke:#fed500;stroke-linejoin:round;stroke-width:3.14px;}.cls-6{fill:#fed500;}</style><linearGradient id="linear-gradient" x1="46.26" y1="27.22" x2="91.72" y2="27.22" gradientUnits="userSpaceOnUse"><stop offset="0" stop-color="#fdd501" stop-opacity="0.2"/><stop offset="1" stop-color="#fff" stop-opacity="0"/></linearGradient><linearGradient id="linear-gradient-2" x1="1.57" y1="27.22" x2="46.26" y2="27.22" gradientUnits="userSpaceOnUse"><stop offset="0" stop-color="#fff" stop-opacity="0"/><stop offset="0.76" stop-color="#7c7c7c" stop-opacity="0.14"/><stop offset="1" stop-color="#414141" stop-opacity="0.2"/></linearGradient><linearGradient id="linear-gradient-3" x1="46.26" y1="55.14" x2="91.72" y2="55.14" xlink:href="#linear-gradient"/><linearGradient id="linear-gradient-4" x1="0.95" y1="55.05" x2="45.64" y2="55.05" xlink:href="#linear-gradient-2"/></defs><title>logo-solo</title><g id="Layer_2" data-name="Layer 2"><g id="Layer_1-2" data-name="Layer 1"><polygon class="cls-1" points="46.26 1.57 46.26 32 91.72 52.88 91.72 27.95 46.26 1.57"/><polygon class="cls-2" points="1.57 52.88 1.6 27.64 46.26 1.57 46.26 32 1.57 52.88"/><polygon class="cls-3" points="46.26 32 46.26 62.44 91.72 78.28 91.72 52.88 46.26 32"/><polygon class="cls-4" points="46.26 32 46.26 62.44 1.57 78.09 1.57 52.88 46.26 32"/><polyline class="cls-5" points="1.6 29.94 1.6 27.64 46.26 1.57 91.72 27.95 91.72 29.94"/><polyline class="cls-5" points="91.72 55 91.72 52.88 46.26 32 1.57 52.88 1.57 55"/><polygon class="cls-6" points="1.57 78.09 46.26 62.44 91.72 78.28 46.26 84.46 1.57 78.09"/></g></g></svg>