<svg version="1" xmlns="http://www.w3.org/2000/svg" width="992" height="992" viewBox="0 0 744.000000 744.000000"><path d="M365 29.7c-.8.3-10.7 6-22 12.6s-22.5 13.1-25 14.5c-2.5 1.3-4.9 2.8-5.5 3.2-.5.5-10.9 6.5-23 13.5S266.3 87 264.8 87.9c-2.3 1.4-30.8 18.1-40.1 23.5-4.5 2.5-102.8 59.9-166.7 97.2-42.7 24.9-53.9 31.9-55.6 34.6C.6 246 .3 247.9.4 257l.1 10.5h12.3l12.2.1.1-2.6c.1-1.4 0-3.7-.1-5.1-.2-3.2-.4-3 17.3-13.3 8.1-4.7 21.3-12.5 29.5-17.2 8.1-4.8 16.7-9.8 19.2-11.2 2.5-1.4 6.2-3.6 8.2-4.9 2.1-1.2 4.1-2.3 4.6-2.3.4 0 1.3-.5 2-1.2s3.7-2.6 6.6-4.3c5.1-2.8 32.2-18.5 35.6-20.5 9.8-6 41.3-24.2 42.7-24.7 1-.4 2-1 2.3-1.3.5-.7 38.2-22.6 44.5-25.9 1.6-.9 3.2-1.8 3.5-2.2 1.7-1.8 8.2-4.9 9.1-4.3.7.4.9.3.6-.3-.7-1.2 4.9-4.6 6.3-3.8.6.4.9.1.8-.7-.2-.7.5-1.2 1.5-1.2 1 .1 1.6 0 1.3-.3-.6-.6 8.3-6 24.4-15 1.4-.8 3.9-2.3 5.5-3.3 1.7-1.1 4.6-2.8 6.5-3.8 1.9-1 8.1-4.7 13.8-8 5.7-3.4 10.8-6.2 11.3-6.2s.9-.4.9-.9 1.2-1.4 2.8-2.1c3.4-1.4 8.8-4.4 10.5-5.9.8-.6 1.7-.8 2-.4.4.3.7.2.7-.4 0-.5 2.4-2.2 5.3-3.8 2.8-1.5 6.4-3.7 8-4.7 1.5-1.1 2.7-1.6 2.7-1.2 0 .4 1-.1 2.3-1.2 2.1-1.8 4.7-3.4 9.6-6 2.1-1.1 2.9-.9 6.2 1.2 2.1 1.3 4.3 2.4 4.9 2.4.5 0 1 .3 1 .8 0 .4 1.5 1.3 3.3 2.1 1.7.8 3.4 1.7 3.7 2 .3.3 2.5 1.7 5 3s5.2 3 6.1 3.7c.8.8 2.1 1.4 2.7 1.4.7 0 1.2.5 1.2 1.1 0 .5.5.7 1 .4.6-.3 1-.1 1 .4 0 .6.7 1.1 1.6 1.1.9 0 1.2.5.8 1.2-.4.6-.3.8.4.4 1.3-.7 13.4 6.3 12.7 7.4-.3.5.3.6 1.3.3 1-.2 2.9.6 4.4 2 1.5 1.4 3 2.2 3.3 1.8.4-.3 1.3.2 2 1.2s1.5 1.7 1.7 1.6c.6-.6 19.8 10.8 19.3 11.4-.3.4-.2.5.1.2.7-.4 5.3 1.9 11.9 6 2.2 1.4 4.9 2.9 6 3.5 1.1.5 3.8 2.1 6 3.4 2.2 1.4 6.3 3.7 9 5.2 2.8 1.4 5.3 3.2 5.7 3.8.4.6.8.8.8.4 0-.7 5.9 2.8 8.6 5.1.7.6 1.4.8 1.7.5.2-.2 1 .2 1.7 1.1.7.8 1.9 1.5 2.6 1.5.8 0 1.4.5 1.4 1 0 .6.3.9.8.8 1.3-.3 6.2 2.5 6.2 3.5 0 .6.3.8.6.4.4-.3 2.9.9 5.8 2.7 2.8 1.8 5.9 3.5 6.9 3.9 1.1.4 1.5 1.2 1.1 1.8-.4.8-.3.9.4.5 1.1-.7 2.3-.1 10.7 4.8 2.2 1.3 5.9 3.4 8.3 4.7 2.3 1.2 4.2 2.7 4.2 3.1 0 .5.4.7.9.3.5-.3 1.2-.1 1.6.4.3.5 1.8 1.6 3.3 2.4 1.5.7 4.5 2.4 6.7 3.7 2.2 1.3 6.5 3.7 9.5 5.3 3 1.7 5.7 3.4 5.8 3.9.2.4.8.8 1.3.8s7 3.6 14.5 8 14.1 8 14.5 8c.5 0 .9.4.9.8s1.2 1.3 2.8 1.9c1.5.7 4.7 2.4 7.2 3.8 2.5 1.5 7.4 4.4 11 6.5 3.6 2.1 20.7 12 38 22 56.1 32.5 49.8 28.4 50.2 33.2l.3 4.3h12.3l12.3.1-.2-9.7c-.1-7.4-.6-10.3-2-12.5-1.2-2-10.8-8.1-31-19.9-16.1-9.4-30.8-17.9-32.8-19-2-1.1-5.2-3-7.1-4.1-1.9-1.2-5.5-3.3-8-4.7-5-2.8-79.8-46.2-92.8-53.8-4.5-2.7-8.7-4.9-9.2-4.9-.6 0-1-.5-1-1 0-.6-.4-1-.9-1s-22.7-12.6-49.3-28.1c-26.5-15.4-50.1-29.1-52.3-30.4-2.2-1.2-20.9-12-41.5-24-45.5-26.5-46-26.7-51-24.8z"/><path d="M372.6 64.2c.3.5 1 .6 1.5.3 1.3-.9 1.1-1.2-.6-1.2-.8 0-1.2.4-.9.9zM379.5 71.9c-.3.5-.2 1.2.3 1.5.5.3.9-.1.9-.9 0-1.7-.3-1.9-1.2-.6zM363.5 76c-.3.5-.1 1 .4 1 .6 0 1.1-.5 1.1-1 0-.6-.2-1-.4-1-.3 0-.8.4-1.1 1zM379.3 108.5c0 .8.4 1.2.9.9.5-.3.6-1 .3-1.5-.9-1.3-1.2-1.1-1.2.6zM299.6 115.8c-.3.5.1.9.9.9s1.2-.4.9-.9c-.3-.4-.7-.8-.9-.8-.2 0-.6.4-.9.8zM366.7 128.1c.7.7 1.5 1 1.8.7.3-.3-.2-.9-1.2-1.2-1.4-.6-1.5-.5-.6.5zM375 128c0 .5.5 1 1 1 .6 0 1-.5 1-1 0-.6-.4-1-1-1-.5 0-1 .4-1 1zM326.5 144c-.3.6.1.7.9.4 1.8-.7 2.1-1.4.7-1.4-.6 0-1.3.4-1.6 1zM303 154.4c0 .2.8 1 1.8 1.7 1.5 1.3 1.6 1.2.3-.4s-2.1-2.1-2.1-1.3zM420 160c-.9.6-1 1-.3 1 .6 0 1.5-.5 1.8-1 .8-1.2.4-1.2-1.5 0zM363.5 164c.3.5.8 1 1.1 1 .2 0 .4-.5.4-1 0-.6-.5-1-1.1-1-.5 0-.7.4-.4 1zM363.5 172c-.3.5-.1 1 .4 1 .6 0 1.1-.5 1.1-1 0-.6-.2-1-.4-1-.3 0-.8.4-1.1 1zM487.3 175.5c0 .8.4 1.2.9.9.5-.3.6-1 .3-1.5-.9-1.3-1.2-1.1-1.2.6zM363.5 180c.3.5.8 1 1.1 1 .2 0 .4-.5.4-1 0-.6-.5-1-1.1-1-.5 0-.7.4-.4 1zM387.5 184c-.3.5-.1 1 .4 1 .6 0 1.1-.5 1.1-1 0-.6-.2-1-.4-1-.3 0-.8.4-1.1 1zM299.5 187.9c-.3.5-.2 1.2.3 1.5.5.3.9-.1.9-.9 0-1.7-.3-1.9-1.2-.6zM450.4 191.8c.4.3 1.4.7 2.2.8.9.1 1.3 0 1-.4-.4-.3-1.4-.7-2.2-.8-.9-.1-1.3 0-1 .4zM299.5 202.9c-.3.5-.2 1.2.3 1.5.5.3.9-.1.9-.9 0-1.7-.3-1.9-1.2-.6zM487.4 207.4c.1.8.5 1.8.8 2.2.4.3.5-.1.4-1-.1-.8-.5-1.8-.8-2.2-.4-.3-.5.1-.4 1zM358.7 208.1c.7.7 1.5 1 1.8.7.3-.3-.2-.9-1.2-1.2-1.4-.6-1.5-.5-.6.5zM318.7 220.1c.7.7 1.5 1 1.8.7.3-.3-.2-.9-1.2-1.2-1.4-.6-1.5-.5-.6.5zM387.5 224c.3.5.8 1 1.1 1 .2 0 .4-.5.4-1 0-.6-.5-1-1.1-1-.5 0-.7.4-.4 1zM299.6 227.8c-.3.5.1.9.9.9s1.2-.4.9-.9c-.3-.4-.7-.8-.9-.8-.2 0-.6.4-.9.8zM387.5 232c-.3.5-.1 1 .4 1 .6 0 1.1-.5 1.1-1 0-.6-.2-1-.4-1-.3 0-.8.4-1.1 1zM287 233.4c0 .2.7.7 1.6 1 .8.3 1.2.2.9-.4-.6-1-2.5-1.4-2.5-.6zM306.9 239.7c-1.3 1.6-1.2 1.7.4.4 1.6-1.3 2.1-2.1 1.3-2.1-.2 0-1 .8-1.7 1.7zM487.3 239.5c0 .8.4 1.2.9.9.5-.3.6-1 .3-1.5-.9-1.3-1.2-1.1-1.2.6zM290.4 239.8c.4.3 1.4.7 2.2.8.9.1 1.3 0 1-.4-.4-.3-1.4-.7-2.2-.8-.9-.1-1.3 0-1 .4zM299.3 244.5c0 .8.4 1.2.9.9.5-.3.6-1 .3-1.5-.9-1.3-1.2-1.1-1.2.6zM379.3 252.5c0 .8.4 1.2.9.9.5-.3.6-1 .3-1.5-.9-1.3-1.2-1.1-1.2.6zM361.6 255.8c-.3.5.1.9.9.9s1.2-.4.9-.9c-.3-.4-.7-.8-.9-.8-.2 0-.6.4-.9.8zM367.3 256.5c0 .8.4 1.2.9.9.5-.3.6-1 .3-1.5-.9-1.3-1.2-1.1-1.2.6zM478.6 269.8c-.3.5.1.9.9.9s1.2-.4.9-.9c-.3-.4-.7-.8-.9-.8-.2 0-.6.4-.9.8zM366 271.7c-.8.3-4.2 1.8-7.4 3.4-3.3 1.5-6.3 2.6-6.7 2.3-.4-.2-1 .3-1.3 1.2-.3.8-1 1.2-1.6.9-.5-.3-1-.1-1 .5s-.4.9-.9.5c-.5-.3-1.3 0-1.6.6-.4.5-1.4.8-2.3.4-.9-.3-1.3-.3-.9.1.7.7-3.4 2.9-17.8 9.4-3.8 1.7-9.6 4.5-12.8 6.1-3.1 1.6-5.8 2.9-6 2.8-.1 0-5.1 2.3-11.2 5.1-10.5 5-13.8 6.4-16 7.1-.5.1-1.6.9-2.3 1.6-.7.7-1.9 1.3-2.6 1.3-.6 0-4.3 1.6-8 3.5-3.8 1.9-7.3 3.5-7.8 3.5-.6 0-2.4 1-4.1 2.2-1.8 1.3-3.3 2.1-3.5 2-.1-.2-2.2.5-4.5 1.6s-7.8 3.7-12.2 5.7c-4.4 2-11.4 5.3-15.5 7.3s-7.7 3.7-8 3.7c-.3.1-4.5 2-9.5 4.4-18.3 8.8-21.9 10.4-23.2 10.4-.7 0-1.3.4-1.3.8 0 .8-4 2.4-5.2 2.1-.5-.1-.8.2-.8.7 0 .5-.9 1.3-2.1 1.6-1.1.4-4 1.5-6.2 2.5-2.3 1-4.6 1.9-5.1 1.9-.5-.1-1.2.3-1.5.8-.7.9-5.4 3.3-18.1 9.1-4.7 2.2-18.8 8.8-31.5 14.7C82.9 404 75.9 407.3 61 414.3c-41.7 19.4-53.7 25.1-55.6 26.4-4.1 2.6-5.5 7.4-5.2 17.5l.3 9.3 11 .1c6.1 0 11.6-.2 12.3-.4.7-.2 1.2-2.2 1.2-4.6v-4.1l10.8-5c5.9-2.7 17.1-8 25-11.7 7.9-3.7 14.5-6.8 14.7-6.8.2 0 5.7-2.5 12.2-5.6 11.3-5.4 14.1-6.7 31.8-14.9 4.4-2 10.3-4.8 13.2-6.2 2.9-1.3 5.6-2.4 6-2.5.4 0 2-.9 3.5-1.9 1.4-1 3.1-1.9 3.7-1.9.6 0 2.8-.9 4.8-2 2.1-1.1 4.3-2 5-2 .7 0 1.3-.5 1.3-1 0-.6.5-1 1.1-1 1 0 17.9-7.6 32.9-14.8 4.1-2 7.7-3.7 8-3.7.3-.1 3.7-1.7 7.5-3.5 3.9-1.9 7.2-3.4 7.5-3.5.3 0 3.2-1.3 6.5-2.9 3.3-1.6 7.6-3.6 9.5-4.5 1.9-.9 3.8-2.1 4.2-2.6.4-.6.8-.7.8-.2 0 .6 5.4-1.8 12.3-5.4 1-.5 2.3-.7 2.9-.3.7.4.8.3.4-.4-.6-1.1.6-1.6 2.7-1.3.4 0 .7-.3.7-.8s1-1.3 2.3-1.7c2.1-.7 12.9-5.6 24.6-11.2 2.9-1.4 5.9-2.5 6.7-2.5.8 0 1.4-.4 1.4-.9 0-.4.7-.8 1.5-.8s1.5-.4 1.5-1c0-.5.3-.9.8-.8.8.1 6.3-2.3 16.9-7.4 3.7-1.8 7-3.3 7.3-3.4.3 0 3.9-1.7 8-3.7s8-3.6 8.5-3.7c.6-.1 1.8-.9 2.8-1.7.9-.9 1.7-1.3 1.7-1 0 .4 2.6-.6 5.7-2.2s6.1-2.7 6.5-2.5c.4.3.8.1.8-.4 0-.9 6.8-4.2 8-3.8.3 0 1.9-.9 3.5-2.1 1.7-1.1 3.7-2.3 4.5-2.4 2.3-.6 10 2.3 9.3 3.4-.3.6-.1.7.5.3 1.6-1 5.4 1.2 4.6 2.6-.5.7-.2.8.5.3.7-.4 2.3-.3 3.4.3 1.2.6 5 2.3 8.4 3.8 3.4 1.5 6 3.1 5.7 3.5-.2.4.1 1.1.7 1.5.8.4.9.3.5-.4s-.2-1.2.4-1.2c1 0 5 2 6 3 .3.3 1.1.6 1.9.8.8.2 4.2 1.6 7.7 3.2 3.5 1.7 6.8 3 7.4 3 .5 0 1 .5 1 1.1 0 .5.4.8.9.4.5-.3 1.5 0 2.3.7.7.7 2 1.4 2.8 1.6.7.2 5 2 9.4 4.1 13.3 6.3 22.7 10.6 29.8 13.6 3.7 1.6 6.5 3.2 6.2 3.7-.3.4.2.5 1 .2.9-.3 1.6-.1 1.6.6 0 .6.4.9.9.5.5-.3 1.2-.1 1.6.5.4.6 1 .8 1.5.5.5-.3 1.5.2 2.4 1 .8.9 1.8 1.5 2.1 1.5 1-.3 11.5 4.4 11.5 5 0 .4.6.7 1.3.7.6 0 4.1 1.4 7.6 3.2 3.6 1.7 6.9 3.1 7.4 3.1s2.1.9 3.6 1.9c1.5 1.1 3.9 2.3 5.4 2.6 1.5.4 2.7 1.1 2.7 1.7 0 .5.6.8 1.3.7 1.2-.2 4.6 1.3 24.7 10.8 5.2 2.5 10.1 4.6 10.8 4.7.7.1 1.8.8 2.4 1.4.7.7 1.6 1.2 2.1 1.2.4 0 3.2 1.1 6 2.4 7.1 3.2 15.2 6.9 21.2 9.6 2.8 1.3 9.2 4.2 14.3 6.6 5.1 2.4 11.6 5.4 14.5 6.6 2.8 1.2 5.5 2.7 5.9 3.2.4.6.8.8.8.4s4.4 1.4 9.8 3.9c18.9 8.8 26.3 12.2 37.7 17.3 5.2 2.4 14.4 6.6 28 13 4.4 2 9 4 10.3 4.4 1.8.6 2.2 1.4 2.2 5.2 0 2.4.3 4.5.8 4.5.4.1 6 .2 12.5.3l11.7.1v-9.3c0-10.2-1.5-15-5.3-17.5-1.9-1.2-9.5-4.8-43.9-20.6-3.8-1.7-9.8-4.5-13.5-6.2-3.8-1.7-9.3-4.3-12.3-5.7-3-1.3-20-9.2-37.8-17.3-17.7-8.2-32.7-14.9-33.2-14.9-.6 0-1-.5-1-1.2 0-.6-.3-.9-.6-.5-.3.3-2.1-.3-4-1.4-1.9-1-4.1-1.9-4.9-1.9-.8 0-1.5-.5-1.5-1 0-.6-.7-1-1.5-1-1.8 0-5.7-2-6.7-3.5-.4-.6-.8-.6-.8-.2 0 .4-1 .2-2.2-.5-1.3-.7-2.5-1.3-2.8-1.3-1.5-.2-7-3.1-7-3.7 0-.5-.9-.8-2-.8-2.1 0-6-1.9-7.1-3.3-.3-.5-.8-.8-1-.7-.8.3-7.3-2.5-24.9-10.8-3-1.4-5.8-2.6-6.2-2.7-.4 0-1.3-.6-1.9-1.3-.7-.6-1.8-1.2-2.5-1.2s-5.2-1.9-10.1-4.2c-4.8-2.3-9.1-4.1-9.5-4-.5.1-.8-.3-.8-.8 0-.6-.6-1-1.3-1-.8 0-4-1.3-7.3-2.8-3.2-1.6-7.4-3.5-9.1-4.3-1.8-.8-3.3-1.8-3.3-2.2 0-.5-.4-.6-.9-.2-.5.3-1.2.1-1.6-.5-.4-.6-1.1-.8-1.6-.5-.5.4-.9.1-.9-.4 0-.6-.6-1.1-1.4-1.1-1.9 0-19.8-8.6-19.6-9.4.1-.4-.2-1.1-.6-1.4-.4-.4-.4-.1 0 .5 1.1 2-.4 1.6-7.8-2.2-3.9-1.9-7.6-3.5-8.3-3.5-.7 0-1.3-.5-1.3-1 0-.6-.3-.9-.7-.8-1.4.2-7.4-2.8-6.7-3.4.3-.4-.3-.4-1.5-.1-1.3.3-2.3 0-2.7-1-.3-.9-1.1-1.4-1.9-1.1-.7.3-2-.2-2.9-1.1-.9-.9-1.6-1.4-1.6-1 0 .3-1 0-2.2-.7-1.3-.6-2.7-1.3-3.3-1.4-2.5-.5-6.4-3.2-5.7-3.9.4-.5.2-.5-.5-.1s-2.3 0-3.6-.9c-1.3-.8-2.7-1.2-3-.8-.4.3-.7.1-.7-.6s-.4-.9-1-.6c-.5.3-1 .1-1-.6s-.3-1-.6-.6c-.6.6-8.3-2.9-9.4-4.2-.6-.7-2.8-1.3-4.7-1.4-.7 0-1.3-.4-1.3-.8 0-.6-2.3-1.6-5.5-2.4-.5-.1-1.2-.3-1.5-.4-1.4-.6-4.7-.8-6-.4zM307.3 295.5c0 .8.4 1.5.9 1.5.4 0 .8-.4.8-.9 0-.6-.4-1.2-.8-1.5-.5-.3-.9.1-.9.9zM287 297.4c0 .2.7.7 1.6 1 .8.3 1.2.2.9-.4-.6-1-2.5-1.4-2.5-.6z"/><path d="M355.3 316.5c0 .8.4 1.2.9.9.5-.3.6-1 .3-1.5-.9-1.3-1.2-1.1-1.2.6zM379.3 316.5c0 .8.4 1.2.9.9.5-.3.6-1 .3-1.5-.9-1.3-1.2-1.1-1.2.6zM531 324.1c0 .5.5.7 1 .4.6-.3 1-.8 1-1.1 0-.2-.4-.4-1-.4-.5 0-1 .5-1 1.1zM387.5 328c.3.5.8 1 1.1 1 .2 0 .4-.5.4-1 0-.6-.5-1-1.1-1-.5 0-.7.4-.4 1zM328 336c-.9.6-1 1-.3 1 .6 0 1.5-.5 1.8-1 .8-1.2.4-1.2-1.5 0zM350 359.4c0 .2.8 1 1.8 1.7 1.5 1.3 1.6 1.2.3-.4s-2.1-2.1-2.1-1.3zM366.6 360.2c.3.4.9.8 1.5.8.5 0 .9-.4.9-.8 0-.5-.7-.9-1.5-.9s-1.2.4-.9.9zM375.5 360c-.3.5-.1 1 .4 1 .6 0 1.1-.5 1.1-1 0-.6-.2-1-.4-1-.3 0-.8.4-1.1 1zM303.5 371.1c-.4.6-.5 1.2-.2 1.5.2.3.7-.2 1-1.1.7-1.7.1-2-.8-.4zM299.5 376c-.3.5-.1 1 .4 1 .6 0 1.1-.5 1.1-1 0-.6-.2-1-.4-1-.3 0-.8.4-1.1 1zM346.6 375.8c-.3.5.1.9.9.9s1.2-.4.9-.9c-.3-.4-.7-.8-.9-.8-.2 0-.6.4-.9.8zM355.6 379.3c.3 1 .9 1.5 1.2 1.2.3-.3 0-1.1-.7-1.8-1-.9-1.1-.8-.5.6zM363.6 380.2c.3.5 1 .6 1.5.3 1.3-.9 1.1-1.2-.6-1.2-.8 0-1.2.4-.9.9zM481 383.4c0 .2.7.7 1.6 1 .8.3 1.2.2.9-.4-.6-1-2.5-1.4-2.5-.6zM379 404.1c0 .5.5.7 1 .4.6-.3 1-.8 1-1.1 0-.2-.4-.4-1-.4-.5 0-1 .5-1 1.1zM271.5 415.1c-.4.6-.5 1.2-.2 1.5.2.3.7-.2 1-1.1.7-1.7.1-2-.8-.4zM431.6 420.2c.3.5 1 .6 1.5.3 1.3-.9 1.1-1.2-.6-1.2-.8 0-1.2.4-.9.9zM451 420c0 .5.5 1 1.1 1 .5 0 .7-.5.4-1-.3-.6-.8-1-1.1-1-.2 0-.4.4-.4 1zM219.3 428.5c0 .8.4 1.2.9.9.5-.3.6-1 .3-1.5-.9-1.3-1.2-1.1-1.2.6zM355.6 428.2c.3.5 1 .6 1.5.3 1.3-.9 1.1-1.2-.6-1.2-.8 0-1.2.4-.9.9zM450.6 427.8c-.3.5.1.9.9.9s1.2-.4.9-.9c-.3-.4-.7-.8-.9-.8-.2 0-.6.4-.9.8zM383.5 434.9c-.3.5-.2 1.2.3 1.5.5.3.9-.1.9-.9 0-1.7-.3-1.9-1.2-.6zM355.6 436.2c.3.5 1 .6 1.5.3 1.3-.9 1.1-1.2-.6-1.2-.8 0-1.2.4-.9.9zM319.6 443.3c.3 1 .9 1.5 1.2 1.2.3-.3 0-1.1-.7-1.8-1-.9-1.1-.8-.5.6zM355.6 443.8c-.3.5.1.9.9.9s1.2-.4.9-.9c-.3-.4-.7-.8-.9-.8-.2 0-.6.4-.9.8zM463 443.9c0 .6.4 1.2.8 1.5.5.3.9-.1.9-.9s-.4-1.5-.9-1.5c-.4 0-.8.4-.8.9zM319.5 455.9c-.3.5-.2 1.2.3 1.5.5.3.9-.1.9-.9 0-1.7-.3-1.9-1.2-.6zM391 472.1c0 .5.5.7 1 .4.6-.3 1-.8 1-1.1 0-.2-.4-.4-1-.4-.5 0-1 .5-1 1.1zM351.3 475.5c0 .8.4 1.2.9.9.5-.3.6-1 .3-1.5-.9-1.3-1.2-1.1-1.2.6zM290.6 483.8c-.3.5.1.9.9.9s1.2-.4.9-.9c-.3-.4-.7-.8-.9-.8-.2 0-.6.4-.9.8zM371.5 484c-.3.5-.1 1 .4 1 .6 0 1.1-.5 1.1-1 0-.6-.2-1-.4-1-.3 0-.8.4-1.1 1zM379.5 483.9c-.3.5-.2 1.2.3 1.5.5.3.9-.1.9-.9 0-1.7-.3-1.9-1.2-.6zM451 484c0 .5.5 1 1.1 1 .5 0 .7-.5.4-1-.3-.6-.8-1-1.1-1-.2 0-.4.4-.4 1zM299.5 488c-.3.5-.1 1 .4 1 .6 0 1.1-.5 1.1-1 0-.6-.2-1-.4-1-.3 0-.8.4-1.1 1zM355 492c0 .5.5 1 1.1 1 .5 0 .7-.5.4-1-.3-.6-.8-1-1.1-1-.2 0-.4.4-.4 1zM371 492.1c0 .5.5.7 1 .4.6-.3 1-.8 1-1.1 0-.2-.4-.4-1-.4-.5 0-1 .5-1 1.1zM450.6 491.8c-.3.5.1.9.9.9s1.2-.4.9-.9c-.3-.4-.7-.8-.9-.8-.2 0-.6.4-.9.8zM383 495.4c0 .2.7.7 1.6 1 .8.3 1.2.2.9-.4-.6-1-2.5-1.4-2.5-.6zM307 502.4c0 .2.8 1 1.8 1.7 1.5 1.3 1.6 1.2.3-.4s-2.1-2.1-2.1-1.3zM351.3 507.5c0 .8.4 1.2.9.9.5-.3.6-1 .3-1.5-.9-1.3-1.2-1.1-1.2.6zM463 507.9c0 .6.4 1.2.8 1.5.5.3.9-.1.9-.9s-.4-1.5-.9-1.5c-.4 0-.8.4-.8.9zM361.4 515.6c-1.2.8-3.1 1.6-4.3 1.7-1.2.1-2.1.5-2.1.9s-.6.8-1.4.8c-.8 0-2.7.5-4.3 1.2-1.5.6-3.2 1.2-3.8 1.3-.5.2-1.7.4-2.5.6-.8.2-1.8.7-2.1 1.2-.3.4-1.4 1-2.5 1.2-5.7 1.4-11 3.1-11.4 3.7-.3.4-1.7.9-3 1.2-1.4.2-5.6 1.6-9.5 3.1-3.8 1.5-7.7 2.9-8.5 3-.8.2-1.6.4-1.7.5-.2.2-.6.3-1 .5-.5.1-1.5.5-2.3.8-.8.4-8.2 2.9-16.5 5.7-8.2 2.8-15.9 5.5-17 6-1.1.4-4.2 1.5-7 2.5-2.7.9-5.9 2-7 2.5-1.1.5-2.9 1.1-4 1.3-1.1.3-5.8 1.9-10.5 3.7-4.7 1.7-8.9 3.3-9.5 3.4-.5.2-1.7.6-2.5.9-2.4 1-10.4 3.7-12 4.2-.8.2-2.7.8-4.2 1.4-1.6.6-2.8.8-2.8.6 0-.3-1 .1-2.3 1-1.3.8-2.7 1.2-3 .8-.4-.3-.7 0-.7.7s-.3 1-.6.7c-.4-.3-1.5-.2-2.6.4-1.1.6-3.2 1.3-4.6 1.5-1.5.3-3.1.9-3.7 1.3-.8.7-9.8 3.8-13 4.6-1.2.2-4.2 1.4-7 2.5-1.1.5-4.9 1.8-8.5 3-3.6 1.2-7.2 2.4-8 2.7-.8.4-1.7.7-2 .8-.3.1-1.4.5-2.5.9-8.5 3.1-16.6 6-26.5 9.4-17.7 6.2-51.6 18-60.5 21.2-4.4 1.6-13.4 4.7-20 7s-16.3 5.7-21.5 7.5c-5.2 1.8-10.4 3.6-11.5 3.9-2.5.7-6.6 4.4-8.2 7.3-.8 1.3-1.1 4-.8 6.3.9 6.8 5.3 10.4 14.1 11.5 2.7.4 5.6.8 6.4 1 .8.2 4.2.7 7.5 1 3.3.4 6.7.8 7.5 1.1.8.2 3.5.6 6 .9 2.5.3 5.6.8 7 1 4.3.7 11.4 1.7 14.5 2 1.7.2 4.7.6 6.8.9 2 .3 5.2.8 7 1.1 1.7.2 4.9.7 7 1 2 .3 5.4.7 7.5 1 2 .3 5.1.7 6.7 1 4.4.7 10.5 1.6 14.5 2.1 8.2 1 11.6 1.5 13 1.9.8.2 4.4.7 8 1 3.6.4 6.8.9 7.1 1.1.3.1 3 .6 6 .9 3 .3 6.1.8 6.9 1 .8.2 4.4.7 8 1 3.6.4 6.7.8 7 1 .3.1 3.2.6 6.5 1 3.2.3 6.2.8 6.5 1 .3.2 3.6.6 7.5 1 3.8.3 7.2.8 7.5 1 .3.1 3.2.6 6.5 1 3.2.3 6.2.8 6.5 1 .3.1 3.4.6 7 .9 3.6.4 7.2.8 8 1.1.8.2 3.5.6 6 .9 2.5.3 5.4.8 6.5 1 1.1.2 4.7.7 8 1 3.3.4 6.8.9 7.7 1.2.9.3 3.4.7 5.5.9 3.5.3 23.5 3.1 29.3 4 1.4.2 4.5.7 7 1 2.5.3 5.4.7 6.5.9 1.9.3 11.8 1.8 14 2.1 2.2.2 13.1 1.8 14.6 2 .9.2 4 .6 7 1 3 .3 7.9 1 10.9 1.5 18 3 26.6 3.1 40.5.4 1.1-.2 4.1-.6 6.6-.9 2.5-.3 5.5-.7 6.7-1 1.1-.2 4.5-.6 7.4-.9 2.9-.4 6.4-.8 7.8-1.1 1.4-.3 4.9-.7 7.8-1.1 2.9-.3 6.1-.7 7.1-.9 1-.2 4.2-.6 7.2-1 3-.3 6.1-.8 6.9-1 .8-.2 4.4-.7 8-1 3.6-.4 6.7-.8 7-1 .7-.4 11.8-1.8 15.7-1.9 1.8-.1 3.3-.3 3.3-.6s.8-.6 1.8-.6c1.5 0 5.7-.5 16.7-1.9 2.2-.3 5.2-.8 6.6-1.1 1.5-.3 4.6-.7 7-.9 2.4-.3 6-.7 7.9-1 1.9-.2 5.5-.7 8-1 2.5-.3 5.6-.7 7-1 2.6-.4 7.7-1.1 15.3-2 2.3-.3 5.3-.8 6.7-1 1.4-.3 4.5-.7 7-1 2.5-.3 5.6-.8 7-1 1.4-.2 6.1-.9 10.5-1.4 10-1.3 13.6-1.8 31-4.2 7.7-1.1 15.4-2.2 17-2.4 3.9-.4 17.1-2.2 30.5-4.1 12-1.7 15.8-2.2 21.9-2.9 2.3-.3 5.5-.7 7-.9 3.6-.6 12-1.7 15.6-2.2 1.7-.2 4.8-.6 7-.9 6.5-1 8.7-1.3 14.5-2 10.7-1.2 16-4.3 17.5-10.2.8-3.4-1.1-9.6-3.8-12.1-1.3-1.2-11.1-5.2-22.5-9.1-11.2-3.9-20.8-7.3-21.3-7.6-.5-.4-1.7-.8-2.6-1-1-.2-10.3-3.3-20.8-7-22.8-8-35.2-12.3-50.5-17.6-6.3-2.2-12.2-4.3-13-4.6-.8-.3-1.9-.7-2.5-.9-1.5-.3-18.7-6.5-21-7.4-3.1-1.3-6.9-2.4-7.7-2.2-.5.1-.8-.2-.8-.8 0-.5-.8-1-1.7-1-1 0-5.6-1.4-10.3-3.1-4.7-1.6-12.7-4.4-17.7-6.1-5.1-1.7-9.3-3.5-9.3-4s-.4-.7-.8-.4c-.7.4-6.5-1.2-11.2-3.1-.8-.3-1.9-.7-2.5-.9-3.6-1-35.8-12.5-37.4-13.4-1.1-.5-2.4-.9-2.8-.9-.4.1-2-.3-3.4-.8-1.4-.6-4.4-1.7-6.7-2.4-2.3-.6-3.9-1.6-3.6-2 .3-.5-.2-.6-1-.3s-2.1.2-2.8-.2c-.7-.5-1.5-.9-1.8-1-2.5-.4-6.8-2-8.9-3-1.4-.8-3.3-1.4-4.1-1.4-.8 0-2.8-.7-4.4-1.5-1.5-.8-3.7-1.5-4.8-1.5-1.2 0-1.7-.4-1.2-1.2.4-.6.3-.8-.3-.5-.5.3-6.8-1.4-13.9-3.9-7.1-2.5-13.5-4.6-14.1-4.6-.7-.1-1.3-.5-1.3-1 0-.4-.3-.7-.8-.6-.8.3-15.4-4.4-16.2-5.2-.3-.3-1.4-.7-2.5-.8-1.1-.2-2.2-.8-2.3-1.3-.2-.5-.8-.7-1.3-.4-.5.4-2.3-.1-4.1-.9-1.8-.9-4.2-1.7-5.3-1.9-1.1-.1-2.5-.5-3-.9-1.9-1.2-10.5-1.8-10.5-.8 0 .6-.5 1-1.1 1-.5 0-.7-.5-.4-1 .8-1.3.4-1.2-2.1.6zM282.4 527.8c.4.3 1.4.7 2.2.8.9.1 1.3 0 1-.4-.4-.3-1.4-.7-2.2-.8-.9-.1-1.3 0-1 .4zM219.3 539.5c0 .8.4 1.2.9.9.5-.3.6-1 .3-1.5-.9-1.3-1.2-1.1-1.2.6z"/></svg>